<mxfile host="app.diagrams.net" agent="Mozilla/5.0 (Windows NT 10.0; Win64; x64) AppleWebKit/537.36 (KHTML, like Gecko) Chrome/133.0.0.0 Safari/537.36" version="26.0.16">
  <diagram id="R2lEEEUBdFMjLlhIrx00" name="Page-1">
    <mxGraphModel dx="699" dy="356" grid="0" gridSize="10" guides="1" tooltips="1" connect="1" arrows="1" fold="1" page="1" pageScale="1" pageWidth="850" pageHeight="1100" math="0" shadow="0" extFonts="Permanent Marker^https://fonts.googleapis.com/css?family=Permanent+Marker">
      <root>
        <mxCell id="0" />
        <mxCell id="1" parent="0" />
        <mxCell id="W6O00z9e2jKBi8f0GFG0-56" value="Person" style="shape=table;startSize=30;container=1;collapsible=1;childLayout=tableLayout;fixedRows=1;rowLines=0;fontStyle=1;align=center;resizeLast=1;html=1;swimlaneFillColor=none;gradientColor=none;strokeColor=default;" parent="1" vertex="1">
          <mxGeometry x="587.56" y="88" width="225.9767441860464" height="180" as="geometry" />
        </mxCell>
        <mxCell id="W6O00z9e2jKBi8f0GFG0-57" value="" style="shape=tableRow;horizontal=0;startSize=0;swimlaneHead=0;swimlaneBody=0;fillColor=none;collapsible=0;dropTarget=0;points=[[0,0.5],[1,0.5]];portConstraint=eastwest;top=0;left=0;right=0;bottom=1;strokeColor=default;" parent="W6O00z9e2jKBi8f0GFG0-56" vertex="1">
          <mxGeometry y="30" width="225.9767441860464" height="30" as="geometry" />
        </mxCell>
        <mxCell id="W6O00z9e2jKBi8f0GFG0-58" value="PK" style="shape=partialRectangle;connectable=0;fillColor=none;top=0;left=0;bottom=0;right=0;fontStyle=1;overflow=hidden;whiteSpace=wrap;html=1;strokeColor=default;" parent="W6O00z9e2jKBi8f0GFG0-57" vertex="1">
          <mxGeometry width="30" height="30" as="geometry">
            <mxRectangle width="30" height="30" as="alternateBounds" />
          </mxGeometry>
        </mxCell>
        <mxCell id="W6O00z9e2jKBi8f0GFG0-59" value="personID&amp;nbsp;&lt;span style=&quot;font-weight: 400;&quot;&gt;int NOT NULL&lt;/span&gt;" style="shape=partialRectangle;connectable=0;fillColor=none;top=0;left=0;bottom=0;right=0;align=left;spacingLeft=6;fontStyle=5;overflow=hidden;whiteSpace=wrap;html=1;strokeColor=default;" parent="W6O00z9e2jKBi8f0GFG0-57" vertex="1">
          <mxGeometry x="30" width="195.9767441860464" height="30" as="geometry">
            <mxRectangle width="195.9767441860464" height="30" as="alternateBounds" />
          </mxGeometry>
        </mxCell>
        <mxCell id="W6O00z9e2jKBi8f0GFG0-60" value="" style="shape=tableRow;horizontal=0;startSize=0;swimlaneHead=0;swimlaneBody=0;fillColor=none;collapsible=0;dropTarget=0;points=[[0,0.5],[1,0.5]];portConstraint=eastwest;top=0;left=0;right=0;bottom=0;strokeColor=default;" parent="W6O00z9e2jKBi8f0GFG0-56" vertex="1">
          <mxGeometry y="60" width="225.9767441860464" height="30" as="geometry" />
        </mxCell>
        <mxCell id="W6O00z9e2jKBi8f0GFG0-61" value="" style="shape=partialRectangle;connectable=0;fillColor=none;top=0;left=0;bottom=0;right=0;editable=1;overflow=hidden;whiteSpace=wrap;html=1;strokeColor=default;" parent="W6O00z9e2jKBi8f0GFG0-60" vertex="1">
          <mxGeometry width="30" height="30" as="geometry">
            <mxRectangle width="30" height="30" as="alternateBounds" />
          </mxGeometry>
        </mxCell>
        <mxCell id="W6O00z9e2jKBi8f0GFG0-62" value="name varchar(4&lt;span class=&quot;hljs-number&quot;&gt;0&lt;/span&gt;) NOT NULL" style="shape=partialRectangle;connectable=0;fillColor=none;top=0;left=0;bottom=0;right=0;align=left;spacingLeft=6;overflow=hidden;whiteSpace=wrap;html=1;strokeColor=default;" parent="W6O00z9e2jKBi8f0GFG0-60" vertex="1">
          <mxGeometry x="30" width="195.9767441860464" height="30" as="geometry">
            <mxRectangle width="195.9767441860464" height="30" as="alternateBounds" />
          </mxGeometry>
        </mxCell>
        <mxCell id="W6O00z9e2jKBi8f0GFG0-63" value="" style="shape=tableRow;horizontal=0;startSize=0;swimlaneHead=0;swimlaneBody=0;fillColor=none;collapsible=0;dropTarget=0;points=[[0,0.5],[1,0.5]];portConstraint=eastwest;top=0;left=0;right=0;bottom=0;strokeColor=default;" parent="W6O00z9e2jKBi8f0GFG0-56" vertex="1">
          <mxGeometry y="90" width="225.9767441860464" height="30" as="geometry" />
        </mxCell>
        <mxCell id="W6O00z9e2jKBi8f0GFG0-64" value="" style="shape=partialRectangle;connectable=0;fillColor=none;top=0;left=0;bottom=0;right=0;editable=1;overflow=hidden;whiteSpace=wrap;html=1;strokeColor=default;" parent="W6O00z9e2jKBi8f0GFG0-63" vertex="1">
          <mxGeometry width="30" height="30" as="geometry">
            <mxRectangle width="30" height="30" as="alternateBounds" />
          </mxGeometry>
        </mxCell>
        <mxCell id="W6O00z9e2jKBi8f0GFG0-65" value="sex varchar(5) NOT NULL" style="shape=partialRectangle;connectable=0;fillColor=none;top=0;left=0;bottom=0;right=0;align=left;spacingLeft=6;overflow=hidden;whiteSpace=wrap;html=1;strokeColor=default;" parent="W6O00z9e2jKBi8f0GFG0-63" vertex="1">
          <mxGeometry x="30" width="195.9767441860464" height="30" as="geometry">
            <mxRectangle width="195.9767441860464" height="30" as="alternateBounds" />
          </mxGeometry>
        </mxCell>
        <mxCell id="W6O00z9e2jKBi8f0GFG0-66" style="shape=tableRow;horizontal=0;startSize=0;swimlaneHead=0;swimlaneBody=0;fillColor=none;collapsible=0;dropTarget=0;points=[[0,0.5],[1,0.5]];portConstraint=eastwest;top=0;left=0;right=0;bottom=0;strokeColor=default;" parent="W6O00z9e2jKBi8f0GFG0-56" vertex="1">
          <mxGeometry y="120" width="225.9767441860464" height="30" as="geometry" />
        </mxCell>
        <mxCell id="W6O00z9e2jKBi8f0GFG0-67" style="shape=partialRectangle;connectable=0;fillColor=none;top=0;left=0;bottom=0;right=0;editable=1;overflow=hidden;whiteSpace=wrap;html=1;strokeColor=default;" parent="W6O00z9e2jKBi8f0GFG0-66" vertex="1">
          <mxGeometry width="30" height="30" as="geometry">
            <mxRectangle width="30" height="30" as="alternateBounds" />
          </mxGeometry>
        </mxCell>
        <mxCell id="W6O00z9e2jKBi8f0GFG0-68" value="age int NOT NULL" style="shape=partialRectangle;connectable=0;fillColor=none;top=0;left=0;bottom=0;right=0;align=left;spacingLeft=6;overflow=hidden;whiteSpace=wrap;html=1;strokeColor=default;" parent="W6O00z9e2jKBi8f0GFG0-66" vertex="1">
          <mxGeometry x="30" width="195.9767441860464" height="30" as="geometry">
            <mxRectangle width="195.9767441860464" height="30" as="alternateBounds" />
          </mxGeometry>
        </mxCell>
        <mxCell id="W6O00z9e2jKBi8f0GFG0-119" style="shape=tableRow;horizontal=0;startSize=0;swimlaneHead=0;swimlaneBody=0;fillColor=none;collapsible=0;dropTarget=0;points=[[0,0.5],[1,0.5]];portConstraint=eastwest;top=0;left=0;right=0;bottom=0;strokeColor=default;" parent="W6O00z9e2jKBi8f0GFG0-56" vertex="1">
          <mxGeometry y="150" width="225.9767441860464" height="30" as="geometry" />
        </mxCell>
        <mxCell id="W6O00z9e2jKBi8f0GFG0-120" value="" style="shape=partialRectangle;connectable=0;fillColor=none;top=0;left=0;bottom=0;right=0;editable=1;overflow=hidden;whiteSpace=wrap;html=1;strokeColor=default;" parent="W6O00z9e2jKBi8f0GFG0-119" vertex="1">
          <mxGeometry width="30" height="30" as="geometry">
            <mxRectangle width="30" height="30" as="alternateBounds" />
          </mxGeometry>
        </mxCell>
        <mxCell id="W6O00z9e2jKBi8f0GFG0-121" value="shipRole varchar(4&lt;span class=&quot;hljs-number&quot;&gt;0&lt;/span&gt;) NOT NULL" style="shape=partialRectangle;connectable=0;fillColor=none;top=0;left=0;bottom=0;right=0;align=left;spacingLeft=6;overflow=hidden;whiteSpace=wrap;html=1;strokeColor=default;" parent="W6O00z9e2jKBi8f0GFG0-119" vertex="1">
          <mxGeometry x="30" width="195.9767441860464" height="30" as="geometry">
            <mxRectangle width="195.9767441860464" height="30" as="alternateBounds" />
          </mxGeometry>
        </mxCell>
        <mxCell id="W6O00z9e2jKBi8f0GFG0-73" value="SpaceObject" style="shape=table;startSize=30;container=1;collapsible=1;childLayout=tableLayout;fixedRows=1;rowLines=0;fontStyle=1;align=center;resizeLast=1;html=1;strokeColor=default;" parent="1" vertex="1">
          <mxGeometry x="636" y="732" width="201.10416666666686" height="120" as="geometry" />
        </mxCell>
        <mxCell id="W6O00z9e2jKBi8f0GFG0-74" value="" style="shape=tableRow;horizontal=0;startSize=0;swimlaneHead=0;swimlaneBody=0;fillColor=none;collapsible=0;dropTarget=0;points=[[0,0.5],[1,0.5]];portConstraint=eastwest;top=0;left=0;right=0;bottom=1;strokeColor=default;" parent="W6O00z9e2jKBi8f0GFG0-73" vertex="1">
          <mxGeometry y="30" width="201.10416666666686" height="30" as="geometry" />
        </mxCell>
        <mxCell id="W6O00z9e2jKBi8f0GFG0-75" value="PK" style="shape=partialRectangle;connectable=0;fillColor=none;top=0;left=0;bottom=0;right=0;fontStyle=1;overflow=hidden;whiteSpace=wrap;html=1;strokeColor=default;" parent="W6O00z9e2jKBi8f0GFG0-74" vertex="1">
          <mxGeometry width="30" height="30" as="geometry">
            <mxRectangle width="30" height="30" as="alternateBounds" />
          </mxGeometry>
        </mxCell>
        <mxCell id="W6O00z9e2jKBi8f0GFG0-76" value="objectID&amp;nbsp;&lt;span style=&quot;font-weight: 400;&quot;&gt;int NOT NULL&lt;/span&gt;" style="shape=partialRectangle;connectable=0;fillColor=none;top=0;left=0;bottom=0;right=0;align=left;spacingLeft=6;fontStyle=5;overflow=hidden;whiteSpace=wrap;html=1;strokeColor=default;" parent="W6O00z9e2jKBi8f0GFG0-74" vertex="1">
          <mxGeometry x="30" width="171.10416666666686" height="30" as="geometry">
            <mxRectangle width="171.10416666666686" height="30" as="alternateBounds" />
          </mxGeometry>
        </mxCell>
        <mxCell id="W6O00z9e2jKBi8f0GFG0-77" value="" style="shape=tableRow;horizontal=0;startSize=0;swimlaneHead=0;swimlaneBody=0;fillColor=none;collapsible=0;dropTarget=0;points=[[0,0.5],[1,0.5]];portConstraint=eastwest;top=0;left=0;right=0;bottom=0;strokeColor=default;" parent="W6O00z9e2jKBi8f0GFG0-73" vertex="1">
          <mxGeometry y="60" width="201.10416666666686" height="30" as="geometry" />
        </mxCell>
        <mxCell id="W6O00z9e2jKBi8f0GFG0-78" value="FK" style="shape=partialRectangle;connectable=0;fillColor=none;top=0;left=0;bottom=0;right=0;editable=1;overflow=hidden;whiteSpace=wrap;html=1;strokeColor=default;" parent="W6O00z9e2jKBi8f0GFG0-77" vertex="1">
          <mxGeometry width="30" height="30" as="geometry">
            <mxRectangle width="30" height="30" as="alternateBounds" />
          </mxGeometry>
        </mxCell>
        <mxCell id="W6O00z9e2jKBi8f0GFG0-79" value="systemID int NOT NULL" style="shape=partialRectangle;connectable=0;fillColor=none;top=0;left=0;bottom=0;right=0;align=left;spacingLeft=6;overflow=hidden;whiteSpace=wrap;html=1;strokeColor=default;" parent="W6O00z9e2jKBi8f0GFG0-77" vertex="1">
          <mxGeometry x="30" width="171.10416666666686" height="30" as="geometry">
            <mxRectangle width="171.10416666666686" height="30" as="alternateBounds" />
          </mxGeometry>
        </mxCell>
        <mxCell id="W6O00z9e2jKBi8f0GFG0-83" style="shape=tableRow;horizontal=0;startSize=0;swimlaneHead=0;swimlaneBody=0;fillColor=none;collapsible=0;dropTarget=0;points=[[0,0.5],[1,0.5]];portConstraint=eastwest;top=0;left=0;right=0;bottom=0;strokeColor=default;" parent="W6O00z9e2jKBi8f0GFG0-73" vertex="1">
          <mxGeometry y="90" width="201.10416666666686" height="30" as="geometry" />
        </mxCell>
        <mxCell id="W6O00z9e2jKBi8f0GFG0-84" style="shape=partialRectangle;connectable=0;fillColor=none;top=0;left=0;bottom=0;right=0;editable=1;overflow=hidden;whiteSpace=wrap;html=1;strokeColor=default;" parent="W6O00z9e2jKBi8f0GFG0-83" vertex="1">
          <mxGeometry width="30" height="30" as="geometry">
            <mxRectangle width="30" height="30" as="alternateBounds" />
          </mxGeometry>
        </mxCell>
        <mxCell id="W6O00z9e2jKBi8f0GFG0-85" value="type varchar(4&lt;span class=&quot;hljs-number&quot;&gt;0&lt;/span&gt;) NOT NULL" style="shape=partialRectangle;connectable=0;fillColor=none;top=0;left=0;bottom=0;right=0;align=left;spacingLeft=6;overflow=hidden;whiteSpace=wrap;html=1;strokeColor=default;" parent="W6O00z9e2jKBi8f0GFG0-83" vertex="1">
          <mxGeometry x="30" width="171.10416666666686" height="30" as="geometry">
            <mxRectangle width="171.10416666666686" height="30" as="alternateBounds" />
          </mxGeometry>
        </mxCell>
        <mxCell id="eWJpFkDbyEi80rn6KmU0-1" value="SpaceSystem" style="shape=table;startSize=30;container=1;collapsible=1;childLayout=tableLayout;fixedRows=1;rowLines=0;fontStyle=1;align=center;resizeLast=1;html=1;strokeColor=default;" parent="1" vertex="1">
          <mxGeometry x="468.99999999999994" y="943" width="203.09102564102568" height="95.17948717948752" as="geometry" />
        </mxCell>
        <mxCell id="eWJpFkDbyEi80rn6KmU0-2" value="" style="shape=tableRow;horizontal=0;startSize=0;swimlaneHead=0;swimlaneBody=0;fillColor=none;collapsible=0;dropTarget=0;points=[[0,0.5],[1,0.5]];portConstraint=eastwest;top=0;left=0;right=0;bottom=1;strokeColor=default;" parent="eWJpFkDbyEi80rn6KmU0-1" vertex="1">
          <mxGeometry y="30" width="203.09102564102568" height="31" as="geometry" />
        </mxCell>
        <mxCell id="eWJpFkDbyEi80rn6KmU0-3" value="PK" style="shape=partialRectangle;connectable=0;fillColor=none;top=0;left=0;bottom=0;right=0;fontStyle=1;overflow=hidden;whiteSpace=wrap;html=1;strokeColor=default;" parent="eWJpFkDbyEi80rn6KmU0-2" vertex="1">
          <mxGeometry width="30" height="31" as="geometry">
            <mxRectangle width="30" height="31" as="alternateBounds" />
          </mxGeometry>
        </mxCell>
        <mxCell id="eWJpFkDbyEi80rn6KmU0-4" value="systemID&amp;nbsp;&lt;span style=&quot;font-weight: 400;&quot;&gt;int NOT NULL&lt;/span&gt;" style="shape=partialRectangle;connectable=0;fillColor=none;top=0;left=0;bottom=0;right=0;align=left;spacingLeft=6;fontStyle=5;overflow=hidden;whiteSpace=wrap;html=1;strokeColor=default;" parent="eWJpFkDbyEi80rn6KmU0-2" vertex="1">
          <mxGeometry x="30" width="173.09102564102568" height="31" as="geometry">
            <mxRectangle width="173.09102564102568" height="31" as="alternateBounds" />
          </mxGeometry>
        </mxCell>
        <mxCell id="eWJpFkDbyEi80rn6KmU0-27" style="shape=tableRow;horizontal=0;startSize=0;swimlaneHead=0;swimlaneBody=0;fillColor=none;collapsible=0;dropTarget=0;points=[[0,0.5],[1,0.5]];portConstraint=eastwest;top=0;left=0;right=0;bottom=0;strokeColor=default;" parent="eWJpFkDbyEi80rn6KmU0-1" vertex="1">
          <mxGeometry y="61" width="203.09102564102568" height="34" as="geometry" />
        </mxCell>
        <mxCell id="eWJpFkDbyEi80rn6KmU0-28" style="shape=partialRectangle;connectable=0;fillColor=none;top=0;left=0;bottom=0;right=0;editable=1;overflow=hidden;whiteSpace=wrap;html=1;strokeColor=default;" parent="eWJpFkDbyEi80rn6KmU0-27" vertex="1">
          <mxGeometry width="30" height="34" as="geometry">
            <mxRectangle width="30" height="34" as="alternateBounds" />
          </mxGeometry>
        </mxCell>
        <mxCell id="eWJpFkDbyEi80rn6KmU0-29" value="name varchar(4&lt;span class=&quot;hljs-number&quot;&gt;0&lt;/span&gt;) NOT NULL" style="shape=partialRectangle;connectable=0;fillColor=none;top=0;left=0;bottom=0;right=0;align=left;spacingLeft=6;overflow=hidden;whiteSpace=wrap;html=1;strokeColor=default;" parent="eWJpFkDbyEi80rn6KmU0-27" vertex="1">
          <mxGeometry x="30" width="173.09102564102568" height="34" as="geometry">
            <mxRectangle width="173.09102564102568" height="34" as="alternateBounds" />
          </mxGeometry>
        </mxCell>
        <mxCell id="eWJpFkDbyEi80rn6KmU0-78" value="" style="edgeStyle=orthogonalEdgeStyle;fontSize=12;html=1;endArrow=ERoneToMany;startArrow=ERmandOne;rounded=0;exitX=0.5;exitY=0;exitDx=0;exitDy=0;entryX=0;entryY=0.5;entryDx=0;entryDy=0;endSize=8;startSize=8;" parent="1" source="eWJpFkDbyEi80rn6KmU0-1" target="W6O00z9e2jKBi8f0GFG0-77" edge="1">
          <mxGeometry width="100" height="100" relative="1" as="geometry">
            <mxPoint x="712" y="865" as="sourcePoint" />
            <mxPoint x="597" y="601" as="targetPoint" />
          </mxGeometry>
        </mxCell>
        <mxCell id="eWJpFkDbyEi80rn6KmU0-79" value="Flights" style="shape=table;startSize=28;container=1;collapsible=1;childLayout=tableLayout;fixedRows=1;rowLines=0;fontStyle=1;align=center;resizeLast=1;html=1;strokeColor=default;" parent="1" vertex="1">
          <mxGeometry x="75" y="545" width="217.89655172413796" height="215.80214559386968" as="geometry" />
        </mxCell>
        <mxCell id="eWJpFkDbyEi80rn6KmU0-80" value="" style="shape=tableRow;horizontal=0;startSize=0;swimlaneHead=0;swimlaneBody=0;fillColor=none;collapsible=0;dropTarget=0;points=[[0,0.5],[1,0.5]];portConstraint=eastwest;top=0;left=0;right=0;bottom=1;strokeColor=default;" parent="eWJpFkDbyEi80rn6KmU0-79" vertex="1">
          <mxGeometry y="28" width="217.89655172413796" height="30" as="geometry" />
        </mxCell>
        <mxCell id="eWJpFkDbyEi80rn6KmU0-81" value="PK" style="shape=partialRectangle;connectable=0;fillColor=none;top=0;left=0;bottom=0;right=0;fontStyle=1;overflow=hidden;whiteSpace=wrap;html=1;strokeColor=default;" parent="eWJpFkDbyEi80rn6KmU0-80" vertex="1">
          <mxGeometry width="30" height="30" as="geometry">
            <mxRectangle width="30" height="30" as="alternateBounds" />
          </mxGeometry>
        </mxCell>
        <mxCell id="eWJpFkDbyEi80rn6KmU0-82" value="flightID&amp;nbsp;&lt;span style=&quot;font-weight: 400;&quot;&gt;int NOT NULL&lt;/span&gt;" style="shape=partialRectangle;connectable=0;fillColor=none;top=0;left=0;bottom=0;right=0;align=left;spacingLeft=6;fontStyle=5;overflow=hidden;whiteSpace=wrap;html=1;strokeColor=default;" parent="eWJpFkDbyEi80rn6KmU0-80" vertex="1">
          <mxGeometry x="30" width="187.89655172413796" height="30" as="geometry">
            <mxRectangle width="187.89655172413796" height="30" as="alternateBounds" />
          </mxGeometry>
        </mxCell>
        <mxCell id="W3ljU4_tdwF-N953EdBJ-4" style="shape=tableRow;horizontal=0;startSize=0;swimlaneHead=0;swimlaneBody=0;fillColor=none;collapsible=0;dropTarget=0;points=[[0,0.5],[1,0.5]];portConstraint=eastwest;top=0;left=0;right=0;bottom=0;strokeColor=default;" parent="eWJpFkDbyEi80rn6KmU0-79" vertex="1">
          <mxGeometry y="58" width="217.89655172413796" height="26" as="geometry" />
        </mxCell>
        <mxCell id="W3ljU4_tdwF-N953EdBJ-5" value="FK" style="shape=partialRectangle;connectable=0;fillColor=none;top=0;left=0;bottom=0;right=0;editable=1;overflow=hidden;whiteSpace=wrap;html=1;strokeColor=default;" parent="W3ljU4_tdwF-N953EdBJ-4" vertex="1">
          <mxGeometry width="30" height="26" as="geometry">
            <mxRectangle width="30" height="26" as="alternateBounds" />
          </mxGeometry>
        </mxCell>
        <mxCell id="W3ljU4_tdwF-N953EdBJ-6" value="teamID int NOT NULL" style="shape=partialRectangle;connectable=0;fillColor=none;top=0;left=0;bottom=0;right=0;align=left;spacingLeft=6;overflow=hidden;whiteSpace=wrap;html=1;strokeColor=default;" parent="W3ljU4_tdwF-N953EdBJ-4" vertex="1">
          <mxGeometry x="30" width="187.89655172413796" height="26" as="geometry">
            <mxRectangle width="187.89655172413796" height="26" as="alternateBounds" />
          </mxGeometry>
        </mxCell>
        <mxCell id="eWJpFkDbyEi80rn6KmU0-83" value="" style="shape=tableRow;horizontal=0;startSize=0;swimlaneHead=0;swimlaneBody=0;fillColor=none;collapsible=0;dropTarget=0;points=[[0,0.5],[1,0.5]];portConstraint=eastwest;top=0;left=0;right=0;bottom=0;strokeColor=default;" parent="eWJpFkDbyEi80rn6KmU0-79" vertex="1">
          <mxGeometry y="84" width="217.89655172413796" height="33" as="geometry" />
        </mxCell>
        <mxCell id="eWJpFkDbyEi80rn6KmU0-84" value="FK" style="shape=partialRectangle;connectable=0;fillColor=none;top=0;left=0;bottom=0;right=0;editable=1;overflow=hidden;whiteSpace=wrap;html=1;strokeColor=default;" parent="eWJpFkDbyEi80rn6KmU0-83" vertex="1">
          <mxGeometry width="30" height="33" as="geometry">
            <mxRectangle width="30" height="33" as="alternateBounds" />
          </mxGeometry>
        </mxCell>
        <mxCell id="eWJpFkDbyEi80rn6KmU0-85" value="shipID int NOT NULL" style="shape=partialRectangle;connectable=0;fillColor=none;top=0;left=0;bottom=0;right=0;align=left;spacingLeft=6;overflow=hidden;whiteSpace=wrap;html=1;strokeColor=default;" parent="eWJpFkDbyEi80rn6KmU0-83" vertex="1">
          <mxGeometry x="30" width="187.89655172413796" height="33" as="geometry">
            <mxRectangle width="187.89655172413796" height="33" as="alternateBounds" />
          </mxGeometry>
        </mxCell>
        <mxCell id="Ww7iRQM48_l98hEynebK-1" style="shape=tableRow;horizontal=0;startSize=0;swimlaneHead=0;swimlaneBody=0;fillColor=none;collapsible=0;dropTarget=0;points=[[0,0.5],[1,0.5]];portConstraint=eastwest;top=0;left=0;right=0;bottom=0;strokeColor=default;" parent="eWJpFkDbyEi80rn6KmU0-79" vertex="1">
          <mxGeometry y="117" width="217.89655172413796" height="33" as="geometry" />
        </mxCell>
        <mxCell id="Ww7iRQM48_l98hEynebK-2" value="FK" style="shape=partialRectangle;connectable=0;fillColor=none;top=0;left=0;bottom=0;right=0;editable=1;overflow=hidden;whiteSpace=wrap;html=1;strokeColor=default;" parent="Ww7iRQM48_l98hEynebK-1" vertex="1">
          <mxGeometry width="30" height="33" as="geometry">
            <mxRectangle width="30" height="33" as="alternateBounds" />
          </mxGeometry>
        </mxCell>
        <mxCell id="Ww7iRQM48_l98hEynebK-3" value="routeID int NOT NULL" style="shape=partialRectangle;connectable=0;fillColor=none;top=0;left=0;bottom=0;right=0;align=left;spacingLeft=6;overflow=hidden;whiteSpace=wrap;html=1;strokeColor=default;" parent="Ww7iRQM48_l98hEynebK-1" vertex="1">
          <mxGeometry x="30" width="187.89655172413796" height="33" as="geometry">
            <mxRectangle width="187.89655172413796" height="33" as="alternateBounds" />
          </mxGeometry>
        </mxCell>
        <mxCell id="Ww7iRQM48_l98hEynebK-9" style="shape=tableRow;horizontal=0;startSize=0;swimlaneHead=0;swimlaneBody=0;fillColor=none;collapsible=0;dropTarget=0;points=[[0,0.5],[1,0.5]];portConstraint=eastwest;top=0;left=0;right=0;bottom=0;strokeColor=default;" parent="eWJpFkDbyEi80rn6KmU0-79" vertex="1">
          <mxGeometry y="150" width="217.89655172413796" height="32" as="geometry" />
        </mxCell>
        <mxCell id="Ww7iRQM48_l98hEynebK-10" style="shape=partialRectangle;connectable=0;fillColor=none;top=0;left=0;bottom=0;right=0;editable=1;overflow=hidden;whiteSpace=wrap;html=1;strokeColor=default;" parent="Ww7iRQM48_l98hEynebK-9" vertex="1">
          <mxGeometry width="30" height="32" as="geometry">
            <mxRectangle width="30" height="32" as="alternateBounds" />
          </mxGeometry>
        </mxCell>
        <mxCell id="Ww7iRQM48_l98hEynebK-11" value="startTime timestamp NOT NULL&amp;nbsp;" style="shape=partialRectangle;connectable=0;fillColor=none;top=0;left=0;bottom=0;right=0;align=left;spacingLeft=6;overflow=hidden;whiteSpace=wrap;html=1;strokeColor=default;" parent="Ww7iRQM48_l98hEynebK-9" vertex="1">
          <mxGeometry x="30" width="187.89655172413796" height="32" as="geometry">
            <mxRectangle width="187.89655172413796" height="32" as="alternateBounds" />
          </mxGeometry>
        </mxCell>
        <mxCell id="Ww7iRQM48_l98hEynebK-65" style="shape=tableRow;horizontal=0;startSize=0;swimlaneHead=0;swimlaneBody=0;fillColor=none;collapsible=0;dropTarget=0;points=[[0,0.5],[1,0.5]];portConstraint=eastwest;top=0;left=0;right=0;bottom=0;strokeColor=default;" parent="eWJpFkDbyEi80rn6KmU0-79" vertex="1">
          <mxGeometry y="182" width="217.89655172413796" height="33" as="geometry" />
        </mxCell>
        <mxCell id="Ww7iRQM48_l98hEynebK-66" style="shape=partialRectangle;connectable=0;fillColor=none;top=0;left=0;bottom=0;right=0;editable=1;overflow=hidden;whiteSpace=wrap;html=1;strokeColor=default;" parent="Ww7iRQM48_l98hEynebK-65" vertex="1">
          <mxGeometry width="30" height="33" as="geometry">
            <mxRectangle width="30" height="33" as="alternateBounds" />
          </mxGeometry>
        </mxCell>
        <mxCell id="Ww7iRQM48_l98hEynebK-67" value="endTime&amp;nbsp;timestamp NOT NULL" style="shape=partialRectangle;connectable=0;fillColor=none;top=0;left=0;bottom=0;right=0;align=left;spacingLeft=6;overflow=hidden;whiteSpace=wrap;html=1;strokeColor=default;" parent="Ww7iRQM48_l98hEynebK-65" vertex="1">
          <mxGeometry x="30" width="187.89655172413796" height="33" as="geometry">
            <mxRectangle width="187.89655172413796" height="33" as="alternateBounds" />
          </mxGeometry>
        </mxCell>
        <mxCell id="hk_QW2q0oVv3KBvT4bCH-62" value="RoutesStep" style="shape=table;startSize=30;container=1;collapsible=1;childLayout=tableLayout;fixedRows=1;rowLines=0;fontStyle=1;align=center;resizeLast=1;html=1;" parent="1" vertex="1">
          <mxGeometry x="184" y="42" width="180" height="150" as="geometry" />
        </mxCell>
        <mxCell id="hk_QW2q0oVv3KBvT4bCH-63" value="" style="shape=tableRow;horizontal=0;startSize=0;swimlaneHead=0;swimlaneBody=0;fillColor=none;collapsible=0;dropTarget=0;points=[[0,0.5],[1,0.5]];portConstraint=eastwest;top=0;left=0;right=0;bottom=1;" parent="hk_QW2q0oVv3KBvT4bCH-62" vertex="1">
          <mxGeometry y="30" width="180" height="30" as="geometry" />
        </mxCell>
        <mxCell id="hk_QW2q0oVv3KBvT4bCH-64" value="PK" style="shape=partialRectangle;connectable=0;fillColor=none;top=0;left=0;bottom=0;right=0;fontStyle=1;overflow=hidden;whiteSpace=wrap;html=1;" parent="hk_QW2q0oVv3KBvT4bCH-63" vertex="1">
          <mxGeometry width="30" height="30" as="geometry">
            <mxRectangle width="30" height="30" as="alternateBounds" />
          </mxGeometry>
        </mxCell>
        <mxCell id="hk_QW2q0oVv3KBvT4bCH-65" value="stepID&amp;nbsp;&lt;span style=&quot;font-weight: 400;&quot;&gt;int NOT NULL&lt;/span&gt;" style="shape=partialRectangle;connectable=0;fillColor=none;top=0;left=0;bottom=0;right=0;align=left;spacingLeft=6;fontStyle=5;overflow=hidden;whiteSpace=wrap;html=1;" parent="hk_QW2q0oVv3KBvT4bCH-63" vertex="1">
          <mxGeometry x="30" width="150" height="30" as="geometry">
            <mxRectangle width="150" height="30" as="alternateBounds" />
          </mxGeometry>
        </mxCell>
        <mxCell id="hk_QW2q0oVv3KBvT4bCH-66" value="" style="shape=tableRow;horizontal=0;startSize=0;swimlaneHead=0;swimlaneBody=0;fillColor=none;collapsible=0;dropTarget=0;points=[[0,0.5],[1,0.5]];portConstraint=eastwest;top=0;left=0;right=0;bottom=0;" parent="hk_QW2q0oVv3KBvT4bCH-62" vertex="1">
          <mxGeometry y="60" width="180" height="30" as="geometry" />
        </mxCell>
        <mxCell id="hk_QW2q0oVv3KBvT4bCH-67" value="FK" style="shape=partialRectangle;connectable=0;fillColor=none;top=0;left=0;bottom=0;right=0;editable=1;overflow=hidden;whiteSpace=wrap;html=1;" parent="hk_QW2q0oVv3KBvT4bCH-66" vertex="1">
          <mxGeometry width="30" height="30" as="geometry">
            <mxRectangle width="30" height="30" as="alternateBounds" />
          </mxGeometry>
        </mxCell>
        <mxCell id="hk_QW2q0oVv3KBvT4bCH-68" value="routeID int NOT NULL" style="shape=partialRectangle;connectable=0;fillColor=none;top=0;left=0;bottom=0;right=0;align=left;spacingLeft=6;overflow=hidden;whiteSpace=wrap;html=1;" parent="hk_QW2q0oVv3KBvT4bCH-66" vertex="1">
          <mxGeometry x="30" width="150" height="30" as="geometry">
            <mxRectangle width="150" height="30" as="alternateBounds" />
          </mxGeometry>
        </mxCell>
        <mxCell id="hk_QW2q0oVv3KBvT4bCH-69" value="" style="shape=tableRow;horizontal=0;startSize=0;swimlaneHead=0;swimlaneBody=0;fillColor=none;collapsible=0;dropTarget=0;points=[[0,0.5],[1,0.5]];portConstraint=eastwest;top=0;left=0;right=0;bottom=0;" parent="hk_QW2q0oVv3KBvT4bCH-62" vertex="1">
          <mxGeometry y="90" width="180" height="30" as="geometry" />
        </mxCell>
        <mxCell id="hk_QW2q0oVv3KBvT4bCH-70" value="" style="shape=partialRectangle;connectable=0;fillColor=none;top=0;left=0;bottom=0;right=0;editable=1;overflow=hidden;whiteSpace=wrap;html=1;" parent="hk_QW2q0oVv3KBvT4bCH-69" vertex="1">
          <mxGeometry width="30" height="30" as="geometry">
            <mxRectangle width="30" height="30" as="alternateBounds" />
          </mxGeometry>
        </mxCell>
        <mxCell id="hk_QW2q0oVv3KBvT4bCH-71" value="step int NOT NULL" style="shape=partialRectangle;connectable=0;fillColor=none;top=0;left=0;bottom=0;right=0;align=left;spacingLeft=6;overflow=hidden;whiteSpace=wrap;html=1;" parent="hk_QW2q0oVv3KBvT4bCH-69" vertex="1">
          <mxGeometry x="30" width="150" height="30" as="geometry">
            <mxRectangle width="150" height="30" as="alternateBounds" />
          </mxGeometry>
        </mxCell>
        <mxCell id="hk_QW2q0oVv3KBvT4bCH-72" style="shape=tableRow;horizontal=0;startSize=0;swimlaneHead=0;swimlaneBody=0;fillColor=none;collapsible=0;dropTarget=0;points=[[0,0.5],[1,0.5]];portConstraint=eastwest;top=0;left=0;right=0;bottom=0;" parent="hk_QW2q0oVv3KBvT4bCH-62" vertex="1">
          <mxGeometry y="120" width="180" height="30" as="geometry" />
        </mxCell>
        <mxCell id="hk_QW2q0oVv3KBvT4bCH-73" value="FK" style="shape=partialRectangle;connectable=0;fillColor=none;top=0;left=0;bottom=0;right=0;editable=1;overflow=hidden;whiteSpace=wrap;html=1;" parent="hk_QW2q0oVv3KBvT4bCH-72" vertex="1">
          <mxGeometry width="30" height="30" as="geometry">
            <mxRectangle width="30" height="30" as="alternateBounds" />
          </mxGeometry>
        </mxCell>
        <mxCell id="hk_QW2q0oVv3KBvT4bCH-74" value="objectID int NOT NULL" style="shape=partialRectangle;connectable=0;fillColor=none;top=0;left=0;bottom=0;right=0;align=left;spacingLeft=6;overflow=hidden;whiteSpace=wrap;html=1;" parent="hk_QW2q0oVv3KBvT4bCH-72" vertex="1">
          <mxGeometry x="30" width="150" height="30" as="geometry">
            <mxRectangle width="150" height="30" as="alternateBounds" />
          </mxGeometry>
        </mxCell>
        <mxCell id="hk_QW2q0oVv3KBvT4bCH-76" value="Route" style="shape=table;startSize=30;container=1;collapsible=1;childLayout=tableLayout;fixedRows=1;rowLines=0;fontStyle=1;align=center;resizeLast=1;html=1;" parent="1" vertex="1">
          <mxGeometry x="75" y="272" width="250.07" height="90" as="geometry" />
        </mxCell>
        <mxCell id="hk_QW2q0oVv3KBvT4bCH-77" value="" style="shape=tableRow;horizontal=0;startSize=0;swimlaneHead=0;swimlaneBody=0;fillColor=none;collapsible=0;dropTarget=0;points=[[0,0.5],[1,0.5]];portConstraint=eastwest;top=0;left=0;right=0;bottom=1;" parent="hk_QW2q0oVv3KBvT4bCH-76" vertex="1">
          <mxGeometry y="30" width="250.07" height="30" as="geometry" />
        </mxCell>
        <mxCell id="hk_QW2q0oVv3KBvT4bCH-78" value="PK" style="shape=partialRectangle;connectable=0;fillColor=none;top=0;left=0;bottom=0;right=0;fontStyle=1;overflow=hidden;whiteSpace=wrap;html=1;" parent="hk_QW2q0oVv3KBvT4bCH-77" vertex="1">
          <mxGeometry width="30" height="30" as="geometry">
            <mxRectangle width="30" height="30" as="alternateBounds" />
          </mxGeometry>
        </mxCell>
        <mxCell id="hk_QW2q0oVv3KBvT4bCH-79" value="routeID&amp;nbsp;&lt;span style=&quot;font-weight: 400;&quot;&gt;int NOT NULL&lt;/span&gt;" style="shape=partialRectangle;connectable=0;fillColor=none;top=0;left=0;bottom=0;right=0;align=left;spacingLeft=6;fontStyle=5;overflow=hidden;whiteSpace=wrap;html=1;" parent="hk_QW2q0oVv3KBvT4bCH-77" vertex="1">
          <mxGeometry x="30" width="220.07" height="30" as="geometry">
            <mxRectangle width="220.07" height="30" as="alternateBounds" />
          </mxGeometry>
        </mxCell>
        <mxCell id="hk_QW2q0oVv3KBvT4bCH-83" value="" style="shape=tableRow;horizontal=0;startSize=0;swimlaneHead=0;swimlaneBody=0;fillColor=none;collapsible=0;dropTarget=0;points=[[0,0.5],[1,0.5]];portConstraint=eastwest;top=0;left=0;right=0;bottom=0;" parent="hk_QW2q0oVv3KBvT4bCH-76" vertex="1">
          <mxGeometry y="60" width="250.07" height="30" as="geometry" />
        </mxCell>
        <mxCell id="hk_QW2q0oVv3KBvT4bCH-84" value="" style="shape=partialRectangle;connectable=0;fillColor=none;top=0;left=0;bottom=0;right=0;editable=1;overflow=hidden;whiteSpace=wrap;html=1;" parent="hk_QW2q0oVv3KBvT4bCH-83" vertex="1">
          <mxGeometry width="30" height="30" as="geometry">
            <mxRectangle width="30" height="30" as="alternateBounds" />
          </mxGeometry>
        </mxCell>
        <mxCell id="hk_QW2q0oVv3KBvT4bCH-85" value="description varchar(&lt;span class=&quot;hljs-number&quot;&gt;100&lt;/span&gt;) NOT NULL" style="shape=partialRectangle;connectable=0;fillColor=none;top=0;left=0;bottom=0;right=0;align=left;spacingLeft=6;overflow=hidden;whiteSpace=wrap;html=1;" parent="hk_QW2q0oVv3KBvT4bCH-83" vertex="1">
          <mxGeometry x="30" width="220.07" height="30" as="geometry">
            <mxRectangle width="220.07" height="30" as="alternateBounds" />
          </mxGeometry>
        </mxCell>
        <mxCell id="yhTKvBMiksm-5LVDgbx7-15" value="Team" style="shape=table;startSize=30;container=1;collapsible=1;childLayout=tableLayout;fixedRows=1;rowLines=0;fontStyle=1;align=center;resizeLast=1;html=1;" parent="1" vertex="1">
          <mxGeometry x="587.56" y="571" width="180" height="60.470588235294144" as="geometry" />
        </mxCell>
        <mxCell id="yhTKvBMiksm-5LVDgbx7-16" value="" style="shape=tableRow;horizontal=0;startSize=0;swimlaneHead=0;swimlaneBody=0;fillColor=none;collapsible=0;dropTarget=0;points=[[0,0.5],[1,0.5]];portConstraint=eastwest;top=0;left=0;right=0;bottom=1;" parent="yhTKvBMiksm-5LVDgbx7-15" vertex="1">
          <mxGeometry y="30" width="180" height="30" as="geometry" />
        </mxCell>
        <mxCell id="yhTKvBMiksm-5LVDgbx7-17" value="PK" style="shape=partialRectangle;connectable=0;fillColor=none;top=0;left=0;bottom=0;right=0;fontStyle=1;overflow=hidden;whiteSpace=wrap;html=1;" parent="yhTKvBMiksm-5LVDgbx7-16" vertex="1">
          <mxGeometry width="30" height="30" as="geometry">
            <mxRectangle width="30" height="30" as="alternateBounds" />
          </mxGeometry>
        </mxCell>
        <mxCell id="yhTKvBMiksm-5LVDgbx7-18" value="teamID&amp;nbsp;&lt;span style=&quot;font-weight: 400;&quot;&gt;int NOT NULL&lt;/span&gt;" style="shape=partialRectangle;connectable=0;fillColor=none;top=0;left=0;bottom=0;right=0;align=left;spacingLeft=6;fontStyle=5;overflow=hidden;whiteSpace=wrap;html=1;" parent="yhTKvBMiksm-5LVDgbx7-16" vertex="1">
          <mxGeometry x="30" width="150" height="30" as="geometry">
            <mxRectangle width="150" height="30" as="alternateBounds" />
          </mxGeometry>
        </mxCell>
        <mxCell id="DmtzQHfmxroqNpRglrTf-2" value="PersonAndTeam" style="shape=table;startSize=30;container=1;collapsible=1;childLayout=tableLayout;fixedRows=1;rowLines=0;fontStyle=1;align=center;resizeLast=1;html=1;" parent="1" vertex="1">
          <mxGeometry x="587.56" y="405" width="180" height="120" as="geometry" />
        </mxCell>
        <mxCell id="DmtzQHfmxroqNpRglrTf-3" value="" style="shape=tableRow;horizontal=0;startSize=0;swimlaneHead=0;swimlaneBody=0;fillColor=none;collapsible=0;dropTarget=0;points=[[0,0.5],[1,0.5]];portConstraint=eastwest;top=0;left=0;right=0;bottom=1;" parent="DmtzQHfmxroqNpRglrTf-2" vertex="1">
          <mxGeometry y="30" width="180" height="30" as="geometry" />
        </mxCell>
        <mxCell id="DmtzQHfmxroqNpRglrTf-4" value="PK" style="shape=partialRectangle;connectable=0;fillColor=none;top=0;left=0;bottom=0;right=0;fontStyle=1;overflow=hidden;whiteSpace=wrap;html=1;" parent="DmtzQHfmxroqNpRglrTf-3" vertex="1">
          <mxGeometry width="30" height="30" as="geometry">
            <mxRectangle width="30" height="30" as="alternateBounds" />
          </mxGeometry>
        </mxCell>
        <mxCell id="DmtzQHfmxroqNpRglrTf-5" value="PandTID&amp;nbsp;&lt;span style=&quot;font-weight: 400;&quot;&gt;int NOT NULL&lt;/span&gt;" style="shape=partialRectangle;connectable=0;fillColor=none;top=0;left=0;bottom=0;right=0;align=left;spacingLeft=6;fontStyle=5;overflow=hidden;whiteSpace=wrap;html=1;" parent="DmtzQHfmxroqNpRglrTf-3" vertex="1">
          <mxGeometry x="30" width="150" height="30" as="geometry">
            <mxRectangle width="150" height="30" as="alternateBounds" />
          </mxGeometry>
        </mxCell>
        <mxCell id="DmtzQHfmxroqNpRglrTf-6" value="" style="shape=tableRow;horizontal=0;startSize=0;swimlaneHead=0;swimlaneBody=0;fillColor=none;collapsible=0;dropTarget=0;points=[[0,0.5],[1,0.5]];portConstraint=eastwest;top=0;left=0;right=0;bottom=0;" parent="DmtzQHfmxroqNpRglrTf-2" vertex="1">
          <mxGeometry y="60" width="180" height="30" as="geometry" />
        </mxCell>
        <mxCell id="DmtzQHfmxroqNpRglrTf-7" value="FK" style="shape=partialRectangle;connectable=0;fillColor=none;top=0;left=0;bottom=0;right=0;editable=1;overflow=hidden;whiteSpace=wrap;html=1;" parent="DmtzQHfmxroqNpRglrTf-6" vertex="1">
          <mxGeometry width="30" height="30" as="geometry">
            <mxRectangle width="30" height="30" as="alternateBounds" />
          </mxGeometry>
        </mxCell>
        <mxCell id="DmtzQHfmxroqNpRglrTf-8" value="personID int NOT NULL" style="shape=partialRectangle;connectable=0;fillColor=none;top=0;left=0;bottom=0;right=0;align=left;spacingLeft=6;overflow=hidden;whiteSpace=wrap;html=1;" parent="DmtzQHfmxroqNpRglrTf-6" vertex="1">
          <mxGeometry x="30" width="150" height="30" as="geometry">
            <mxRectangle width="150" height="30" as="alternateBounds" />
          </mxGeometry>
        </mxCell>
        <mxCell id="DmtzQHfmxroqNpRglrTf-9" value="" style="shape=tableRow;horizontal=0;startSize=0;swimlaneHead=0;swimlaneBody=0;fillColor=none;collapsible=0;dropTarget=0;points=[[0,0.5],[1,0.5]];portConstraint=eastwest;top=0;left=0;right=0;bottom=0;" parent="DmtzQHfmxroqNpRglrTf-2" vertex="1">
          <mxGeometry y="90" width="180" height="30" as="geometry" />
        </mxCell>
        <mxCell id="DmtzQHfmxroqNpRglrTf-10" value="FK" style="shape=partialRectangle;connectable=0;fillColor=none;top=0;left=0;bottom=0;right=0;editable=1;overflow=hidden;whiteSpace=wrap;html=1;" parent="DmtzQHfmxroqNpRglrTf-9" vertex="1">
          <mxGeometry width="30" height="30" as="geometry">
            <mxRectangle width="30" height="30" as="alternateBounds" />
          </mxGeometry>
        </mxCell>
        <mxCell id="DmtzQHfmxroqNpRglrTf-11" value="teamID int NOT NULL" style="shape=partialRectangle;connectable=0;fillColor=none;top=0;left=0;bottom=0;right=0;align=left;spacingLeft=6;overflow=hidden;whiteSpace=wrap;html=1;" parent="DmtzQHfmxroqNpRglrTf-9" vertex="1">
          <mxGeometry x="30" width="150" height="30" as="geometry">
            <mxRectangle width="150" height="30" as="alternateBounds" />
          </mxGeometry>
        </mxCell>
        <mxCell id="Ww7iRQM48_l98hEynebK-7" value="" style="edgeStyle=orthogonalEdgeStyle;fontSize=12;html=1;endArrow=ERoneToMany;startArrow=ERmandOne;rounded=0;endSize=8;startSize=8;entryX=0;entryY=0.5;entryDx=0;entryDy=0;exitX=0;exitY=0.5;exitDx=0;exitDy=0;" parent="1" source="W6O00z9e2jKBi8f0GFG0-57" target="DmtzQHfmxroqNpRglrTf-6" edge="1">
          <mxGeometry width="100" height="100" relative="1" as="geometry">
            <mxPoint x="551" y="92.89473684210526" as="sourcePoint" />
            <mxPoint x="552" y="440" as="targetPoint" />
            <Array as="points">
              <mxPoint x="538" y="133" />
              <mxPoint x="538" y="480" />
            </Array>
          </mxGeometry>
        </mxCell>
        <mxCell id="Ww7iRQM48_l98hEynebK-8" value="" style="edgeStyle=orthogonalEdgeStyle;fontSize=12;html=1;endArrow=ERoneToMany;startArrow=ERmandOne;rounded=0;exitX=1;exitY=0.5;exitDx=0;exitDy=0;endSize=8;startSize=8;entryX=1;entryY=0.5;entryDx=0;entryDy=0;" parent="1" source="yhTKvBMiksm-5LVDgbx7-16" target="DmtzQHfmxroqNpRglrTf-9" edge="1">
          <mxGeometry width="100" height="100" relative="1" as="geometry">
            <mxPoint x="598" y="490" as="sourcePoint" />
            <mxPoint x="781" y="513.7272727272727" as="targetPoint" />
            <Array as="points">
              <mxPoint x="803" y="616" />
              <mxPoint x="803" y="510" />
            </Array>
          </mxGeometry>
        </mxCell>
        <mxCell id="Ww7iRQM48_l98hEynebK-12" value="" style="edgeStyle=orthogonalEdgeStyle;fontSize=12;html=1;endArrow=ERoneToMany;startArrow=ERmandOne;rounded=0;entryX=0;entryY=0.5;entryDx=0;entryDy=0;exitX=0;exitY=0.5;exitDx=0;exitDy=0;endSize=8;startSize=8;" parent="1" source="hk_QW2q0oVv3KBvT4bCH-77" target="hk_QW2q0oVv3KBvT4bCH-66" edge="1">
          <mxGeometry width="100" height="100" relative="1" as="geometry">
            <mxPoint x="65" y="432.05" as="sourcePoint" />
            <mxPoint x="71" y="66.05000000000001" as="targetPoint" />
            <Array as="points">
              <mxPoint x="38" y="317" />
              <mxPoint x="38" y="117" />
            </Array>
          </mxGeometry>
        </mxCell>
        <mxCell id="Ww7iRQM48_l98hEynebK-13" value="" style="edgeStyle=orthogonalEdgeStyle;fontSize=12;html=1;endArrow=ERoneToMany;startArrow=ERmandOne;rounded=0;entryX=1;entryY=0.5;entryDx=0;entryDy=0;exitX=0;exitY=0.5;exitDx=0;exitDy=0;endSize=8;startSize=8;" parent="1" source="W6O00z9e2jKBi8f0GFG0-74" target="hk_QW2q0oVv3KBvT4bCH-72" edge="1">
          <mxGeometry width="100" height="100" relative="1" as="geometry">
            <mxPoint x="82" y="604" as="sourcePoint" />
            <mxPoint x="88" y="238" as="targetPoint" />
            <Array as="points">
              <mxPoint x="473" y="777" />
              <mxPoint x="473" y="177" />
            </Array>
          </mxGeometry>
        </mxCell>
        <mxCell id="Ww7iRQM48_l98hEynebK-30" value="" style="edgeStyle=orthogonalEdgeStyle;fontSize=12;html=1;endArrow=ERoneToMany;startArrow=ERmandOne;rounded=0;exitX=1;exitY=0.5;exitDx=0;exitDy=0;entryX=1;entryY=0.5;entryDx=0;entryDy=0;endSize=8;startSize=8;" parent="1" source="hk_QW2q0oVv3KBvT4bCH-77" target="Ww7iRQM48_l98hEynebK-1" edge="1">
          <mxGeometry width="100" height="100" relative="1" as="geometry">
            <mxPoint x="252" y="594" as="sourcePoint" />
            <mxPoint x="366" y="500" as="targetPoint" />
            <Array as="points">
              <mxPoint x="377" y="317" />
              <mxPoint x="377" y="679" />
            </Array>
          </mxGeometry>
        </mxCell>
        <mxCell id="Ww7iRQM48_l98hEynebK-31" value="" style="edgeStyle=orthogonalEdgeStyle;fontSize=12;html=1;endArrow=ERoneToMany;startArrow=ERmandOne;rounded=0;entryX=1;entryY=0.5;entryDx=0;entryDy=0;endSize=8;startSize=8;exitX=0;exitY=0.5;exitDx=0;exitDy=0;" parent="1" source="yhTKvBMiksm-5LVDgbx7-16" target="W3ljU4_tdwF-N953EdBJ-4" edge="1">
          <mxGeometry width="100" height="100" relative="1" as="geometry">
            <mxPoint x="361" y="600" as="sourcePoint" />
            <mxPoint x="376" y="510" as="targetPoint" />
          </mxGeometry>
        </mxCell>
        <mxCell id="Ww7iRQM48_l98hEynebK-32" value="Ship" style="shape=table;startSize=30;container=1;collapsible=1;childLayout=tableLayout;fixedRows=1;rowLines=0;fontStyle=1;align=center;resizeLast=1;html=1;" parent="1" vertex="1">
          <mxGeometry x="74.96000000000001" y="870" width="205.90333333333325" height="90" as="geometry" />
        </mxCell>
        <mxCell id="Ww7iRQM48_l98hEynebK-33" value="" style="shape=tableRow;horizontal=0;startSize=0;swimlaneHead=0;swimlaneBody=0;fillColor=none;collapsible=0;dropTarget=0;points=[[0,0.5],[1,0.5]];portConstraint=eastwest;top=0;left=0;right=0;bottom=1;" parent="Ww7iRQM48_l98hEynebK-32" vertex="1">
          <mxGeometry y="30" width="205.90333333333325" height="30" as="geometry" />
        </mxCell>
        <mxCell id="Ww7iRQM48_l98hEynebK-34" value="PK" style="shape=partialRectangle;connectable=0;fillColor=none;top=0;left=0;bottom=0;right=0;fontStyle=1;overflow=hidden;whiteSpace=wrap;html=1;" parent="Ww7iRQM48_l98hEynebK-33" vertex="1">
          <mxGeometry width="30" height="30" as="geometry">
            <mxRectangle width="30" height="30" as="alternateBounds" />
          </mxGeometry>
        </mxCell>
        <mxCell id="Ww7iRQM48_l98hEynebK-35" value="shipID&amp;nbsp;&lt;span style=&quot;font-weight: 400;&quot;&gt;int NOT NULL&lt;/span&gt;" style="shape=partialRectangle;connectable=0;fillColor=none;top=0;left=0;bottom=0;right=0;align=left;spacingLeft=6;fontStyle=5;overflow=hidden;whiteSpace=wrap;html=1;" parent="Ww7iRQM48_l98hEynebK-33" vertex="1">
          <mxGeometry x="30" width="175.90333333333325" height="30" as="geometry">
            <mxRectangle width="175.90333333333325" height="30" as="alternateBounds" />
          </mxGeometry>
        </mxCell>
        <mxCell id="Ww7iRQM48_l98hEynebK-36" value="" style="shape=tableRow;horizontal=0;startSize=0;swimlaneHead=0;swimlaneBody=0;fillColor=none;collapsible=0;dropTarget=0;points=[[0,0.5],[1,0.5]];portConstraint=eastwest;top=0;left=0;right=0;bottom=0;" parent="Ww7iRQM48_l98hEynebK-32" vertex="1">
          <mxGeometry y="60" width="205.90333333333325" height="30" as="geometry" />
        </mxCell>
        <mxCell id="Ww7iRQM48_l98hEynebK-37" value="" style="shape=partialRectangle;connectable=0;fillColor=none;top=0;left=0;bottom=0;right=0;editable=1;overflow=hidden;whiteSpace=wrap;html=1;" parent="Ww7iRQM48_l98hEynebK-36" vertex="1">
          <mxGeometry width="30" height="30" as="geometry">
            <mxRectangle width="30" height="30" as="alternateBounds" />
          </mxGeometry>
        </mxCell>
        <mxCell id="Ww7iRQM48_l98hEynebK-38" value="name varchar(30) NOT NULL" style="shape=partialRectangle;connectable=0;fillColor=none;top=0;left=0;bottom=0;right=0;align=left;spacingLeft=6;overflow=hidden;whiteSpace=wrap;html=1;" parent="Ww7iRQM48_l98hEynebK-36" vertex="1">
          <mxGeometry x="30" width="175.90333333333325" height="30" as="geometry">
            <mxRectangle width="175.90333333333325" height="30" as="alternateBounds" />
          </mxGeometry>
        </mxCell>
        <mxCell id="Ww7iRQM48_l98hEynebK-64" value="" style="edgeStyle=orthogonalEdgeStyle;fontSize=12;html=1;endArrow=ERoneToMany;startArrow=ERmandOne;rounded=0;exitX=1;exitY=0.5;exitDx=0;exitDy=0;entryX=1;entryY=0.5;entryDx=0;entryDy=0;endSize=8;startSize=8;" parent="1" source="Ww7iRQM48_l98hEynebK-33" target="eWJpFkDbyEi80rn6KmU0-83" edge="1">
          <mxGeometry width="100" height="100" relative="1" as="geometry">
            <mxPoint x="287" y="842" as="sourcePoint" />
            <mxPoint x="401" y="748" as="targetPoint" />
            <Array as="points">
              <mxPoint x="345" y="915" />
              <mxPoint x="345" y="646" />
            </Array>
          </mxGeometry>
        </mxCell>
      </root>
    </mxGraphModel>
  </diagram>
</mxfile>
